<svg xmlns="http://www.w3.org/2000/svg" viewBox="0 0 3000 2597.8"><defs><style>.a{fill:#ff9800;}.b{fill:#03a9f4;}.c{fill:#ffc947;}.d{fill:#fff;}</style></defs><title>logo</title><path class="a" d="M2249.7,865.8l250-433,250,433Z"/><path class="a" d="M1999.7,1298.9l250-433,250,433Z"/><path class="a" d="M1750,1731.75l250-433,250,433Z"/><path class="a" d="M2249.7,1731.75l250-433,250,433Z"/><path class="a" d="M249.9,865.9l250,433,250-433Z"/><path class="a" d="M2500,1298.8l250,433,250-433Z"/><path class="a" d="M2249.7,865.8l250,433,250-433Z"/><path class="a" d="M2000,1298.8l250,433,250-433Z"/><path class="a" d="M0,1298.8l250-433,250,433Z"/><path class="a" d="M499.9,1298.8l250-433,250,433Z"/><path class="a" d="M2500,1298.8l250-433,250,433Z"/><path class="b" d="M1250.1,1731.8l250-433,250,433Z"/><path class="b" d="M1999.7,433l250-433,250,433Z"/><path class="b" d="M1250,0l250,433L1750,0Z"/><path class="b" d="M1250,865.9l250,433,250-433Z"/><path class="b" d="M1250,1731.8l250,433,250-433Z"/><path class="b" d="M749.9,0l250,433,250-433Z"/><path class="b" d="M1000.1,2164.8l250,433,250-433Z"/><path class="b" d="M1500,2164.8l250,433,250-433Z"/><path class="b" d="M1749.8,0l250,433,250-433Z"/><path class="b" d="M1249.9,865.8l250-433,250,433Z"/><path class="b" d="M1249.9,2597.7l250-433,250,433Z"/><path class="b" d="M750.1,2597.7l250-433,250,433Z"/><path class="b" d="M1750,2597.7l250-433,250,433Z"/><path class="b" d="M499.9,433,749.9,0l250,433Z"/><path class="a" d="M250,865.8l250-433,250,433Z"/><path class="c" d="M500.1,432.8l250,433,250-433Z"/><path class="c" d="M2250,1731.8l250,433,250-433Z"/><path class="c" d="M2000,2164.8l250,433,250-433Z"/><path class="c" d="M0,1298.75l250,433,250-433Z"/><path class="c" d="M250.3,1731.8l250,433,250-433Z"/><path class="c" d="M500.3,2164.8l250,433,250-433Z"/><path class="c" d="M999.65,433l250-433,250,433Z"/><path class="c" d="M1499.7,433l250-433,250,433Z"/><path class="c" d="M1999.7,2164.8l250-433,250,433Z"/><path class="c" d="M500.1,2164.8l250-433,250,433Z"/><path class="c" d="M249.8,1731.75l250-433,250,433Z"/><path class="d" d="M999.65,432.9l250,433,250-433Z"/><path class="d" d="M1499.7,432.9l250,433,250-433Z"/><path class="d" d="M749.65,865.7l250,433,250-433Z"/><path class="d" d="M1749.8,865.9l250,433,250-433Z"/><path class="d" d="M499.65,1298.8l250,433,250-433Z"/><path class="d" d="M999.65,1298.8l250,433,250-433Z"/><path class="d" d="M1499.7,1298.8l250,433,250-433Z"/><path class="d" d="M1749.7,1731.8l250,433,250-433Z"/><path class="d" d="M749.65,1731.8l250,433,250-433Z"/><path class="d" d="M749.65,1732l250-433,250,433Z"/><path class="d" d="M999.65,2165.3l250-433,250,433Z"/><path class="d" d="M1500.1,2165.3l250-433,250,433Z"/><path class="d" d="M1499.3,1298.2l250-433,250,433Z"/><path class="d" d="M1000.1,1298.2l250-433,250,433Z"/><path class="d" d="M749.65,864.4l250-433,250,433Z"/><path class="d" d="M1749.3,864.4l250-433,250,433Z"/><path class="c" d="M1999.7,432.8l250,433,250-433Z"/></svg>